<?xml version="1.0" encoding="UTF-8" standalone="no"?>
<!DOCTYPE svg PUBLIC "-//W3C//DTD SVG 1.1//EN"
 "http://www.w3.org/Graphics/SVG/1.1/DTD/svg11.dtd">
<!-- Generated by graphviz version 2.28.0 (20120607.1901)
 -->
<!-- Title: controllers_diagram Pages: 1 -->
<svg width="603pt" height="574pt"
 viewBox="0.00 0.00 603.09 574.20" xmlns="http://www.w3.org/2000/svg" xmlns:xlink="http://www.w3.org/1999/xlink">
<g id="graph1" class="graph" transform="scale(1 1) rotate(0) translate(4 570.2)">
<title>controllers_diagram</title>
<polygon fill="white" stroke="white" points="-4,5 -4,-570.2 600.09,-570.2 600.09,5 -4,5"/>
<!-- _diagram_info -->
<g id="node1" class="node"><title>_diagram_info</title>
<text text-anchor="start" x="134" y="-447" font-family="Times,serif" font-size="13.00">Controllers diagram</text>
<text text-anchor="start" x="134" y="-431.4" font-family="Times,serif" font-size="13.00">Date: Aug 30 2013 &#45; 16:22</text>
<text text-anchor="start" x="134" y="-415.8" font-family="Times,serif" font-size="13.00">Migration version: 20130702174126</text>
<text text-anchor="start" x="134" y="-400.2" font-family="Times,serif" font-size="13.00">Generated by RailRoady 1.0.7</text>
<text text-anchor="start" x="134" y="-384.6" font-family="Times,serif" font-size="13.00">http://railroady.prestonlee.com</text>
</g>
<!-- ApplicationController -->
<g id="node2" class="node"><title>ApplicationController</title>
<polyline fill="none" stroke="black" points="372,-306.5 561.483,-306.5 "/>
<path fill="none" stroke="black" d="M561.483,-306.5C567.483,-306.5 573.483,-312.5 573.483,-318.5"/>
<polyline fill="none" stroke="black" points="573.483,-318.5 573.483,-409.7 "/>
<path fill="none" stroke="black" d="M573.483,-409.7C573.483,-415.7 567.483,-421.7 561.483,-421.7"/>
<polyline fill="none" stroke="black" points="561.483,-421.7 372,-421.7 "/>
<path fill="none" stroke="black" d="M372,-421.7C366,-421.7 360,-415.7 360,-409.7"/>
<polyline fill="none" stroke="black" points="360,-409.7 360,-318.5 "/>
<path fill="none" stroke="black" d="M360,-318.5C360,-312.5 366,-306.5 372,-306.5"/>
<text text-anchor="middle" x="466.742" y="-403.7" font-family="Times,serif" font-size="14.00">ApplicationController</text>
<polyline fill="none" stroke="black" points="360,-396.9 573.483,-396.9 "/>
<text text-anchor="start" x="368" y="-378.9" font-family="Times,serif" font-size="14.00">_one_time_conditions_valid_12?</text>
<polyline fill="none" stroke="black" points="360,-372.1 573.483,-372.1 "/>
<polyline fill="none" stroke="black" points="360,-348.1 573.483,-348.1 "/>
<text text-anchor="start" x="368" y="-330.1" font-family="Times,serif" font-size="14.00">_layout</text>
<text text-anchor="start" x="368" y="-313.3" font-family="Times,serif" font-size="14.00">object_representation_for_constant</text>
</g>
<!-- DeliveriesController -->
<g id="node3" class="node"><title>DeliveriesController</title>
<polyline fill="none" stroke="black" points="12,-0.5 119.076,-0.5 "/>
<path fill="none" stroke="black" d="M119.076,-0.5C125.076,-0.5 131.076,-6.5 131.076,-12.5"/>
<polyline fill="none" stroke="black" points="131.076,-12.5 131.076,-86.9 "/>
<path fill="none" stroke="black" d="M131.076,-86.9C131.076,-92.9 125.076,-98.9 119.076,-98.9"/>
<polyline fill="none" stroke="black" points="119.076,-98.9 12,-98.9 "/>
<path fill="none" stroke="black" d="M12,-98.9C6,-98.9 0,-92.9 0,-86.9"/>
<polyline fill="none" stroke="black" points="0,-86.9 0,-12.5 "/>
<path fill="none" stroke="black" d="M0,-12.5C0,-6.5 6,-0.5 12,-0.5"/>
<text text-anchor="middle" x="65.5381" y="-80.9" font-family="Times,serif" font-size="14.00">DeliveriesController</text>
<polyline fill="none" stroke="black" points="0,-74.1 131.076,-74.1 "/>
<text text-anchor="start" x="8" y="-56.1" font-family="Times,serif" font-size="14.00">create</text>
<polyline fill="none" stroke="black" points="0,-49.3 131.076,-49.3 "/>
<polyline fill="none" stroke="black" points="0,-25.3 131.076,-25.3 "/>
<text text-anchor="start" x="8" y="-7.3" font-family="Times,serif" font-size="14.00">_layout</text>
</g>
<!-- HomeController -->
<g id="node4" class="node"><title>HomeController</title>
<polyline fill="none" stroke="black" points="174,-0.5 257.759,-0.5 "/>
<path fill="none" stroke="black" d="M257.759,-0.5C263.759,-0.5 269.759,-6.5 269.759,-12.5"/>
<polyline fill="none" stroke="black" points="269.759,-12.5 269.759,-86.9 "/>
<path fill="none" stroke="black" d="M269.759,-86.9C269.759,-92.9 263.759,-98.9 257.759,-98.9"/>
<polyline fill="none" stroke="black" points="257.759,-98.9 174,-98.9 "/>
<path fill="none" stroke="black" d="M174,-98.9C168,-98.9 162,-92.9 162,-86.9"/>
<polyline fill="none" stroke="black" points="162,-86.9 162,-12.5 "/>
<path fill="none" stroke="black" d="M162,-12.5C162,-6.5 168,-0.5 174,-0.5"/>
<text text-anchor="middle" x="215.879" y="-80.9" font-family="Times,serif" font-size="14.00">HomeController</text>
<polyline fill="none" stroke="black" points="162,-74.1 269.759,-74.1 "/>
<text text-anchor="start" x="170" y="-56.1" font-family="Times,serif" font-size="14.00">routing_error</text>
<polyline fill="none" stroke="black" points="162,-49.3 269.759,-49.3 "/>
<polyline fill="none" stroke="black" points="162,-25.3 269.759,-25.3 "/>
<text text-anchor="start" x="170" y="-7.3" font-family="Times,serif" font-size="14.00">_layout</text>
</g>
<!-- MarketStallsController -->
<g id="node5" class="node"><title>MarketStallsController</title>
<polyline fill="none" stroke="black" points="462,-450.5 583.09,-450.5 "/>
<path fill="none" stroke="black" d="M583.09,-450.5C589.09,-450.5 595.09,-456.5 595.09,-462.5"/>
<polyline fill="none" stroke="black" points="595.09,-462.5 595.09,-553.7 "/>
<path fill="none" stroke="black" d="M595.09,-553.7C595.09,-559.7 589.09,-565.7 583.09,-565.7"/>
<polyline fill="none" stroke="black" points="583.09,-565.7 462,-565.7 "/>
<path fill="none" stroke="black" d="M462,-565.7C456,-565.7 450,-559.7 450,-553.7"/>
<polyline fill="none" stroke="black" points="450,-553.7 450,-462.5 "/>
<path fill="none" stroke="black" d="M450,-462.5C450,-456.5 456,-450.5 462,-450.5"/>
<text text-anchor="middle" x="522.545" y="-547.7" font-family="Times,serif" font-size="14.00">MarketStallsController</text>
<polyline fill="none" stroke="black" points="450,-540.9 595.09,-540.9 "/>
<text text-anchor="start" x="458" y="-522.9" font-family="Times,serif" font-size="14.00">index</text>
<text text-anchor="start" x="458" y="-506.1" font-family="Times,serif" font-size="14.00">show</text>
<polyline fill="none" stroke="black" points="450,-499.3 595.09,-499.3 "/>
<polyline fill="none" stroke="black" points="450,-475.3 595.09,-475.3 "/>
<text text-anchor="start" x="458" y="-457.3" font-family="Times,serif" font-size="14.00">_layout</text>
</g>
<!-- PointOfInterestsController -->
<g id="node6" class="node"><title>PointOfInterestsController</title>
<polyline fill="none" stroke="black" points="138,-126.5 316.635,-126.5 "/>
<path fill="none" stroke="black" d="M316.635,-126.5C322.635,-126.5 328.635,-132.5 328.635,-138.5"/>
<polyline fill="none" stroke="black" points="328.635,-138.5 328.635,-330.5 "/>
<path fill="none" stroke="black" d="M328.635,-330.5C328.635,-336.5 322.635,-342.5 316.635,-342.5"/>
<polyline fill="none" stroke="black" points="316.635,-342.5 138,-342.5 "/>
<path fill="none" stroke="black" d="M138,-342.5C132,-342.5 126,-336.5 126,-330.5"/>
<polyline fill="none" stroke="black" points="126,-330.5 126,-138.5 "/>
<path fill="none" stroke="black" d="M126,-138.5C126,-132.5 132,-126.5 138,-126.5"/>
<text text-anchor="middle" x="227.317" y="-324.5" font-family="Times,serif" font-size="14.00">PointOfInterestsController</text>
<polyline fill="none" stroke="black" points="126,-317.7 328.635,-317.7 "/>
<text text-anchor="start" x="134" y="-299.7" font-family="Times,serif" font-size="14.00">_one_time_conditions_valid_94?</text>
<text text-anchor="start" x="134" y="-282.9" font-family="Times,serif" font-size="14.00">create</text>
<text text-anchor="start" x="134" y="-266.1" font-family="Times,serif" font-size="14.00">destroy</text>
<text text-anchor="start" x="134" y="-249.3" font-family="Times,serif" font-size="14.00">index</text>
<text text-anchor="start" x="134" y="-232.5" font-family="Times,serif" font-size="14.00">pos_types</text>
<text text-anchor="start" x="134" y="-215.7" font-family="Times,serif" font-size="14.00">show</text>
<text text-anchor="start" x="134" y="-198.9" font-family="Times,serif" font-size="14.00">update</text>
<polyline fill="none" stroke="black" points="126,-192.1 328.635,-192.1 "/>
<polyline fill="none" stroke="black" points="126,-168.1 328.635,-168.1 "/>
<text text-anchor="start" x="134" y="-150.1" font-family="Times,serif" font-size="14.00">_layout</text>
<text text-anchor="start" x="134" y="-133.3" font-family="Times,serif" font-size="14.00">set_poi_type</text>
</g>
<!-- ProductsController -->
<g id="node7" class="node"><title>ProductsController</title>
<polyline fill="none" stroke="black" points="372,-108.5 557.635,-108.5 "/>
<path fill="none" stroke="black" d="M557.635,-108.5C563.635,-108.5 569.635,-114.5 569.635,-120.5"/>
<polyline fill="none" stroke="black" points="569.635,-120.5 569.635,-262.1 "/>
<path fill="none" stroke="black" d="M569.635,-262.1C569.635,-268.1 563.635,-274.1 557.635,-274.1"/>
<polyline fill="none" stroke="black" points="557.635,-274.1 372,-274.1 "/>
<path fill="none" stroke="black" d="M372,-274.1C366,-274.1 360,-268.1 360,-262.1"/>
<polyline fill="none" stroke="black" points="360,-262.1 360,-120.5 "/>
<path fill="none" stroke="black" d="M360,-120.5C360,-114.5 366,-108.5 372,-108.5"/>
<text text-anchor="middle" x="464.817" y="-256.1" font-family="Times,serif" font-size="14.00">ProductsController</text>
<polyline fill="none" stroke="black" points="360,-249.3 569.635,-249.3 "/>
<text text-anchor="start" x="368" y="-231.3" font-family="Times,serif" font-size="14.00">_one_time_conditions_valid_126?</text>
<text text-anchor="start" x="368" y="-214.5" font-family="Times,serif" font-size="14.00">categories</text>
<text text-anchor="start" x="368" y="-197.7" font-family="Times,serif" font-size="14.00">index</text>
<text text-anchor="start" x="368" y="-180.9" font-family="Times,serif" font-size="14.00">show</text>
<polyline fill="none" stroke="black" points="360,-174.1 569.635,-174.1 "/>
<polyline fill="none" stroke="black" points="360,-150.1 569.635,-150.1 "/>
<text text-anchor="start" x="368" y="-132.1" font-family="Times,serif" font-size="14.00">_layout</text>
<text text-anchor="start" x="368" y="-115.3" font-family="Times,serif" font-size="14.00">set_seller</text>
</g>
</g>
</svg>
