<?xml version="1.0" encoding="UTF-8" standalone="no"?>
<!DOCTYPE svg PUBLIC "-//W3C//DTD SVG 1.1//EN"
 "http://www.w3.org/Graphics/SVG/1.1/DTD/svg11.dtd">
<!-- Generated by graphviz version 2.28.0 (20120607.1901)
 -->
<!-- Title: models_diagram Pages: 1 -->
<svg width="801pt" height="1088pt"
 viewBox="0.00 0.00 801.00 1088.00" xmlns="http://www.w3.org/2000/svg" xmlns:xlink="http://www.w3.org/1999/xlink">
<g id="graph1" class="graph" transform="scale(1 1) rotate(0) translate(4 1084)">
<title>models_diagram</title>
<polygon fill="white" stroke="white" points="-4,5 -4,-1084 798,-1084 798,5 -4,5"/>
<!-- _diagram_info -->
<g id="node1" class="node"><title>_diagram_info</title>
<text text-anchor="start" x="7.31226" y="-1038" font-family="Times,serif" font-size="13.00">Models diagram</text>
<text text-anchor="start" x="7.31226" y="-1022.4" font-family="Times,serif" font-size="13.00">Date: Aug 30 2013 &#45; 16:22</text>
<text text-anchor="start" x="7.31226" y="-1006.8" font-family="Times,serif" font-size="13.00">Migration version: 20130702174126</text>
<text text-anchor="start" x="7.31226" y="-991.2" font-family="Times,serif" font-size="13.00">Generated by RailRoady 1.0.7</text>
<text text-anchor="start" x="7.31226" y="-975.6" font-family="Times,serif" font-size="13.00">http://railroady.prestonlee.com</text>
</g>
<!-- Delivery -->
<g id="node2" class="node"><title>Delivery</title>
<polyline fill="none" stroke="black" points="403.495,-0.4 512.505,-0.4 "/>
<path fill="none" stroke="black" d="M512.505,-0.4C518.505,-0.4 524.505,-6.4 524.505,-12.4"/>
<polyline fill="none" stroke="black" points="524.505,-12.4 524.505,-71.6 "/>
<path fill="none" stroke="black" d="M524.505,-71.6C524.505,-77.6 518.505,-83.6 512.505,-83.6"/>
<polyline fill="none" stroke="black" points="512.505,-83.6 403.495,-83.6 "/>
<path fill="none" stroke="black" d="M403.495,-83.6C397.495,-83.6 391.495,-77.6 391.495,-71.6"/>
<polyline fill="none" stroke="black" points="391.495,-71.6 391.495,-12.4 "/>
<path fill="none" stroke="black" d="M391.495,-12.4C391.495,-6.4 397.495,-0.4 403.495,-0.4"/>
<text text-anchor="middle" x="458" y="-65.6" font-family="Times,serif" font-size="14.00">Delivery</text>
<polyline fill="none" stroke="black" points="391.495,-58.8 524.505,-58.8 "/>
<text text-anchor="start" x="399.495" y="-40.8" font-family="Times,serif" font-size="14.00">distance :float</text>
<text text-anchor="start" x="399.495" y="-24" font-family="Times,serif" font-size="14.00">created_at :datetime</text>
<text text-anchor="start" x="399.495" y="-7.2" font-family="Times,serif" font-size="14.00">updated_at :datetime</text>
</g>
<!-- DetailInfo -->
<g id="node3" class="node"><title>DetailInfo</title>
<polyline fill="none" stroke="black" points="292.602,-292.8 409.398,-292.8 "/>
<path fill="none" stroke="black" d="M409.398,-292.8C415.398,-292.8 421.398,-298.8 421.398,-304.8"/>
<polyline fill="none" stroke="black" points="421.398,-304.8 421.398,-431.2 "/>
<path fill="none" stroke="black" d="M421.398,-431.2C421.398,-437.2 415.398,-443.2 409.398,-443.2"/>
<polyline fill="none" stroke="black" points="409.398,-443.2 292.602,-443.2 "/>
<path fill="none" stroke="black" d="M292.602,-443.2C286.602,-443.2 280.602,-437.2 280.602,-431.2"/>
<polyline fill="none" stroke="black" points="280.602,-431.2 280.602,-304.8 "/>
<path fill="none" stroke="black" d="M280.602,-304.8C280.602,-298.8 286.602,-292.8 292.602,-292.8"/>
<text text-anchor="middle" x="351" y="-425.2" font-family="Times,serif" font-size="14.00">DetailInfo</text>
<polyline fill="none" stroke="black" points="280.602,-418.4 421.398,-418.4 "/>
<text text-anchor="start" x="288.602" y="-400.4" font-family="Times,serif" font-size="14.00">website :string</text>
<text text-anchor="start" x="288.602" y="-383.6" font-family="Times,serif" font-size="14.00">mail :string</text>
<text text-anchor="start" x="288.602" y="-366.8" font-family="Times,serif" font-size="14.00">phone :string</text>
<text text-anchor="start" x="288.602" y="-350" font-family="Times,serif" font-size="14.00">description :text</text>
<text text-anchor="start" x="288.602" y="-333.2" font-family="Times,serif" font-size="14.00">detailable_type :string</text>
<text text-anchor="start" x="288.602" y="-316.4" font-family="Times,serif" font-size="14.00">created_at :datetime</text>
<text text-anchor="start" x="288.602" y="-299.6" font-family="Times,serif" font-size="14.00">updated_at :datetime</text>
</g>
<!-- Market -->
<g id="node4" class="node"><title>Market</title>
<polyline fill="none" stroke="black" points="331.495,-601.2 440.505,-601.2 "/>
<path fill="none" stroke="black" d="M440.505,-601.2C446.505,-601.2 452.505,-607.2 452.505,-613.2"/>
<polyline fill="none" stroke="black" points="452.505,-613.2 452.505,-722.8 "/>
<path fill="none" stroke="black" d="M452.505,-722.8C452.505,-728.8 446.505,-734.8 440.505,-734.8"/>
<polyline fill="none" stroke="black" points="440.505,-734.8 331.495,-734.8 "/>
<path fill="none" stroke="black" d="M331.495,-734.8C325.495,-734.8 319.495,-728.8 319.495,-722.8"/>
<polyline fill="none" stroke="black" points="319.495,-722.8 319.495,-613.2 "/>
<path fill="none" stroke="black" d="M319.495,-613.2C319.495,-607.2 325.495,-601.2 331.495,-601.2"/>
<text text-anchor="middle" x="386" y="-716.8" font-family="Times,serif" font-size="14.00">Market</text>
<polyline fill="none" stroke="black" points="319.495,-710 452.505,-710 "/>
<text text-anchor="start" x="327.495" y="-692" font-family="Times,serif" font-size="14.00">name :string</text>
<text text-anchor="start" x="327.495" y="-675.2" font-family="Times,serif" font-size="14.00">address :string</text>
<text text-anchor="start" x="327.495" y="-658.4" font-family="Times,serif" font-size="14.00">location :spatial</text>
<text text-anchor="start" x="327.495" y="-641.6" font-family="Times,serif" font-size="14.00">pos_type :integer</text>
<text text-anchor="start" x="327.495" y="-624.8" font-family="Times,serif" font-size="14.00">created_at :datetime</text>
<text text-anchor="start" x="327.495" y="-608" font-family="Times,serif" font-size="14.00">updated_at :datetime</text>
</g>
<!-- MarketStall -->
<g id="node5" class="node"><title>MarketStall</title>
<polyline fill="none" stroke="black" points="331.495,-480.4 440.505,-480.4 "/>
<path fill="none" stroke="black" d="M440.505,-480.4C446.505,-480.4 452.505,-486.4 452.505,-492.4"/>
<polyline fill="none" stroke="black" points="452.505,-492.4 452.505,-551.6 "/>
<path fill="none" stroke="black" d="M452.505,-551.6C452.505,-557.6 446.505,-563.6 440.505,-563.6"/>
<polyline fill="none" stroke="black" points="440.505,-563.6 331.495,-563.6 "/>
<path fill="none" stroke="black" d="M331.495,-563.6C325.495,-563.6 319.495,-557.6 319.495,-551.6"/>
<polyline fill="none" stroke="black" points="319.495,-551.6 319.495,-492.4 "/>
<path fill="none" stroke="black" d="M319.495,-492.4C319.495,-486.4 325.495,-480.4 331.495,-480.4"/>
<text text-anchor="middle" x="386" y="-545.6" font-family="Times,serif" font-size="14.00">MarketStall</text>
<polyline fill="none" stroke="black" points="319.495,-538.8 452.505,-538.8 "/>
<text text-anchor="start" x="327.495" y="-520.8" font-family="Times,serif" font-size="14.00">name :string</text>
<text text-anchor="start" x="327.495" y="-504" font-family="Times,serif" font-size="14.00">created_at :datetime</text>
<text text-anchor="start" x="327.495" y="-487.2" font-family="Times,serif" font-size="14.00">updated_at :datetime</text>
</g>
<!-- Market&#45;&gt;MarketStall -->
<g id="edge2" class="edge"><title>Market&#45;&gt;MarketStall</title>
<path fill="none" stroke="#e7684e" d="M386,-592.835C386,-586.39 386,-579.968 386,-573.776"/>
<ellipse fill="none" stroke="#e7684e" cx="386" cy="-596.9" rx="4" ry="4"/>
<polygon fill="#e7684e" stroke="#e7684e" points="386,-573.609 390.5,-563.609 386,-568.609 386,-563.609 386,-563.609 386,-563.609 386,-568.609 381.5,-563.609 386,-573.609 386,-573.609"/>
</g>
<!-- MarketStall&#45;&gt;DetailInfo -->
<g id="edge8" class="edge"><title>MarketStall&#45;&gt;DetailInfo</title>
<path fill="none" stroke="#2f9ad8" d="M374.787,-472.303C373.22,-465.499 371.576,-458.359 369.915,-451.144"/>
<ellipse fill="none" stroke="#2f9ad8" cx="375.723" cy="-476.369" rx="4.00001" ry="4.00001"/>
<ellipse fill="#2f9ad8" stroke="#2f9ad8" cx="369.006" cy="-447.197" rx="4.00001" ry="4.00001"/>
</g>
<!-- Product -->
<g id="node10" class="node"><title>Product</title>
<polyline fill="none" stroke="black" points="451.495,-318 560.505,-318 "/>
<path fill="none" stroke="black" d="M560.505,-318C566.505,-318 572.505,-324 572.505,-330"/>
<polyline fill="none" stroke="black" points="572.505,-330 572.505,-406 "/>
<path fill="none" stroke="black" d="M572.505,-406C572.505,-412 566.505,-418 560.505,-418"/>
<polyline fill="none" stroke="black" points="560.505,-418 451.495,-418 "/>
<path fill="none" stroke="black" d="M451.495,-418C445.495,-418 439.495,-412 439.495,-406"/>
<polyline fill="none" stroke="black" points="439.495,-406 439.495,-330 "/>
<path fill="none" stroke="black" d="M439.495,-330C439.495,-324 445.495,-318 451.495,-318"/>
<text text-anchor="middle" x="506" y="-400" font-family="Times,serif" font-size="14.00">Product</text>
<polyline fill="none" stroke="black" points="439.495,-393.2 572.505,-393.2 "/>
<text text-anchor="start" x="447.495" y="-375.2" font-family="Times,serif" font-size="14.00">category :integer</text>
<text text-anchor="start" x="447.495" y="-358.4" font-family="Times,serif" font-size="14.00">seller_type :string</text>
<text text-anchor="start" x="447.495" y="-341.6" font-family="Times,serif" font-size="14.00">created_at :datetime</text>
<text text-anchor="start" x="447.495" y="-324.8" font-family="Times,serif" font-size="14.00">updated_at :datetime</text>
</g>
<!-- MarketStall&#45;&gt;Product -->
<g id="edge6" class="edge"><title>MarketStall&#45;&gt;Product</title>
<path fill="none" stroke="#f248fd" d="M423.202,-473.877C435.079,-458.833 448.357,-442.015 460.741,-426.328"/>
<ellipse fill="none" stroke="#f248fd" cx="420.636" cy="-477.127" rx="4.00002" ry="4.00002"/>
<polygon fill="#f248fd" stroke="#f248fd" points="460.927,-426.092 470.656,-421.032 464.025,-422.168 467.124,-418.243 467.124,-418.243 467.124,-418.243 464.025,-422.168 463.592,-415.455 460.927,-426.092 460.927,-426.092"/>
</g>
<!-- OpeningTime -->
<g id="node6" class="node"><title>OpeningTime</title>
<polyline fill="none" stroke="black" points="672.495,-609.6 781.505,-609.6 "/>
<path fill="none" stroke="black" d="M781.505,-609.6C787.505,-609.6 793.505,-615.6 793.505,-621.6"/>
<polyline fill="none" stroke="black" points="793.505,-621.6 793.505,-714.4 "/>
<path fill="none" stroke="black" d="M793.505,-714.4C793.505,-720.4 787.505,-726.4 781.505,-726.4"/>
<polyline fill="none" stroke="black" points="781.505,-726.4 672.495,-726.4 "/>
<path fill="none" stroke="black" d="M672.495,-726.4C666.495,-726.4 660.495,-720.4 660.495,-714.4"/>
<polyline fill="none" stroke="black" points="660.495,-714.4 660.495,-621.6 "/>
<path fill="none" stroke="black" d="M660.495,-621.6C660.495,-615.6 666.495,-609.6 672.495,-609.6"/>
<text text-anchor="middle" x="727" y="-708.4" font-family="Times,serif" font-size="14.00">OpeningTime</text>
<polyline fill="none" stroke="black" points="660.495,-701.6 793.505,-701.6 "/>
<text text-anchor="start" x="668.495" y="-683.6" font-family="Times,serif" font-size="14.00">day :integer</text>
<text text-anchor="start" x="668.495" y="-666.8" font-family="Times,serif" font-size="14.00">from :string</text>
<text text-anchor="start" x="668.495" y="-650" font-family="Times,serif" font-size="14.00">to :string</text>
<text text-anchor="start" x="668.495" y="-633.2" font-family="Times,serif" font-size="14.00">created_at :datetime</text>
<text text-anchor="start" x="668.495" y="-616.4" font-family="Times,serif" font-size="14.00">updated_at :datetime</text>
</g>
<!-- PointOfInterest -->
<g id="node7" class="node"><title>PointOfInterest</title>
<polyline fill="none" stroke="black" points="236.495,-945.2 345.505,-945.2 "/>
<path fill="none" stroke="black" d="M345.505,-945.2C351.505,-945.2 357.505,-951.2 357.505,-957.2"/>
<polyline fill="none" stroke="black" points="357.505,-957.2 357.505,-1066.8 "/>
<path fill="none" stroke="black" d="M357.505,-1066.8C357.505,-1072.8 351.505,-1078.8 345.505,-1078.8"/>
<polyline fill="none" stroke="black" points="345.505,-1078.8 236.495,-1078.8 "/>
<path fill="none" stroke="black" d="M236.495,-1078.8C230.495,-1078.8 224.495,-1072.8 224.495,-1066.8"/>
<polyline fill="none" stroke="black" points="224.495,-1066.8 224.495,-957.2 "/>
<path fill="none" stroke="black" d="M224.495,-957.2C224.495,-951.2 230.495,-945.2 236.495,-945.2"/>
<text text-anchor="middle" x="291" y="-1060.8" font-family="Times,serif" font-size="14.00">PointOfInterest</text>
<polyline fill="none" stroke="black" points="224.495,-1054 357.505,-1054 "/>
<text text-anchor="start" x="232.495" y="-1036" font-family="Times,serif" font-size="14.00">name :string</text>
<text text-anchor="start" x="232.495" y="-1019.2" font-family="Times,serif" font-size="14.00">address :string</text>
<text text-anchor="start" x="232.495" y="-1002.4" font-family="Times,serif" font-size="14.00">location :spatial</text>
<text text-anchor="start" x="232.495" y="-985.6" font-family="Times,serif" font-size="14.00">pos_type :integer</text>
<text text-anchor="start" x="232.495" y="-968.8" font-family="Times,serif" font-size="14.00">created_at :datetime</text>
<text text-anchor="start" x="232.495" y="-952" font-family="Times,serif" font-size="14.00">updated_at :datetime</text>
</g>
<!-- PointOfInterest&#45;&gt;DetailInfo -->
<g id="edge10" class="edge"><title>PointOfInterest&#45;&gt;DetailInfo</title>
<path fill="none" stroke="#6e9039" d="M286.299,-936.625C281.418,-833.144 278.359,-640.37 310,-480 311.883,-470.458 314.471,-460.649 317.44,-450.998"/>
<ellipse fill="none" stroke="#6e9039" cx="286.504" cy="-940.838" rx="4" ry="4"/>
<ellipse fill="#6e9039" stroke="#6e9039" cx="318.681" cy="-447.111" rx="4.00001" ry="4.00001"/>
</g>
<!-- PointOfProduction -->
<g id="node8" class="node"><title>PointOfProduction</title>
<polyline fill="none" stroke="black" points="356.495,-121.2 465.505,-121.2 "/>
<path fill="none" stroke="black" d="M465.505,-121.2C471.505,-121.2 477.505,-127.2 477.505,-133.2"/>
<polyline fill="none" stroke="black" points="477.505,-133.2 477.505,-242.8 "/>
<path fill="none" stroke="black" d="M477.505,-242.8C477.505,-248.8 471.505,-254.8 465.505,-254.8"/>
<polyline fill="none" stroke="black" points="465.505,-254.8 356.495,-254.8 "/>
<path fill="none" stroke="black" d="M356.495,-254.8C350.495,-254.8 344.495,-248.8 344.495,-242.8"/>
<polyline fill="none" stroke="black" points="344.495,-242.8 344.495,-133.2 "/>
<path fill="none" stroke="black" d="M344.495,-133.2C344.495,-127.2 350.495,-121.2 356.495,-121.2"/>
<text text-anchor="middle" x="411" y="-236.8" font-family="Times,serif" font-size="14.00">PointOfProduction</text>
<polyline fill="none" stroke="black" points="344.495,-230 477.505,-230 "/>
<text text-anchor="start" x="352.495" y="-212" font-family="Times,serif" font-size="14.00">name :string</text>
<text text-anchor="start" x="352.495" y="-195.2" font-family="Times,serif" font-size="14.00">address :string</text>
<text text-anchor="start" x="352.495" y="-178.4" font-family="Times,serif" font-size="14.00">location :spatial</text>
<text text-anchor="start" x="352.495" y="-161.6" font-family="Times,serif" font-size="14.00">pos_type :integer</text>
<text text-anchor="start" x="352.495" y="-144.8" font-family="Times,serif" font-size="14.00">created_at :datetime</text>
<text text-anchor="start" x="352.495" y="-128" font-family="Times,serif" font-size="14.00">updated_at :datetime</text>
</g>
<!-- PointOfInterest&#45;&gt;PointOfProduction -->
<g id="edge14" class="edge"><title>PointOfInterest&#45;&gt;PointOfProduction</title>
<path fill="none" stroke="black" d="M279.289,-945.039C268.123,-876.34 253,-765.481 253,-669 253,-669 253,-669 253,-521 253,-418.873 222.328,-381.234 272,-292 288.434,-262.476 317.268,-239.01 344.429,-221.978"/>
</g>
<!-- PointOfSale -->
<g id="node9" class="node"><title>PointOfSale</title>
<polyline fill="none" stroke="black" points="482.495,-773.2 591.505,-773.2 "/>
<path fill="none" stroke="black" d="M591.505,-773.2C597.505,-773.2 603.505,-779.2 603.505,-785.2"/>
<polyline fill="none" stroke="black" points="603.505,-785.2 603.505,-894.8 "/>
<path fill="none" stroke="black" d="M603.505,-894.8C603.505,-900.8 597.505,-906.8 591.505,-906.8"/>
<polyline fill="none" stroke="black" points="591.505,-906.8 482.495,-906.8 "/>
<path fill="none" stroke="black" d="M482.495,-906.8C476.495,-906.8 470.495,-900.8 470.495,-894.8"/>
<polyline fill="none" stroke="black" points="470.495,-894.8 470.495,-785.2 "/>
<path fill="none" stroke="black" d="M470.495,-785.2C470.495,-779.2 476.495,-773.2 482.495,-773.2"/>
<text text-anchor="middle" x="537" y="-888.8" font-family="Times,serif" font-size="14.00">PointOfSale</text>
<polyline fill="none" stroke="black" points="470.495,-882 603.505,-882 "/>
<text text-anchor="start" x="478.495" y="-864" font-family="Times,serif" font-size="14.00">name :string</text>
<text text-anchor="start" x="478.495" y="-847.2" font-family="Times,serif" font-size="14.00">address :string</text>
<text text-anchor="start" x="478.495" y="-830.4" font-family="Times,serif" font-size="14.00">location :spatial</text>
<text text-anchor="start" x="478.495" y="-813.6" font-family="Times,serif" font-size="14.00">pos_type :integer</text>
<text text-anchor="start" x="478.495" y="-796.8" font-family="Times,serif" font-size="14.00">created_at :datetime</text>
<text text-anchor="start" x="478.495" y="-780" font-family="Times,serif" font-size="14.00">updated_at :datetime</text>
</g>
<!-- PointOfInterest&#45;&gt;PointOfSale -->
<g id="edge20" class="edge"><title>PointOfInterest&#45;&gt;PointOfSale</title>
<path fill="none" stroke="black" d="M357.571,-964.996C392.575,-940.806 435.364,-911.236 470.376,-887.041"/>
</g>
<!-- PointOfProduction&#45;&gt;Delivery -->
<g id="edge12" class="edge"><title>PointOfProduction&#45;&gt;Delivery</title>
<path fill="none" stroke="#462cbf" d="M435.109,-113.134C437.286,-106.465 439.455,-99.8186 441.543,-93.422"/>
<ellipse fill="none" stroke="#462cbf" cx="433.815" cy="-117.098" rx="4.00001" ry="4.00001"/>
<polygon fill="#462cbf" stroke="#462cbf" points="441.643,-93.1157 449.024,-85.0055 443.194,-88.3624 444.746,-83.6092 444.746,-83.6092 444.746,-83.6092 443.194,-88.3624 440.468,-82.2129 441.643,-93.1157 441.643,-93.1157"/>
</g>
<!-- PointOfSale&#45;&gt;Market -->
<g id="edge4" class="edge"><title>PointOfSale&#45;&gt;Market</title>
<path fill="none" stroke="black" d="M478.187,-772.787C467.173,-760.387 455.661,-747.426 444.652,-735.033"/>
</g>
<!-- PointOfSale&#45;&gt;OpeningTime -->
<g id="edge16" class="edge"><title>PointOfSale&#45;&gt;OpeningTime</title>
<path fill="none" stroke="#466c44" d="M610.056,-773.634C624.82,-760.424 640.332,-746.545 655.057,-733.37"/>
<ellipse fill="none" stroke="#466c44" cx="606.701" cy="-776.636" rx="4.00002" ry="4.00002"/>
<polygon fill="#466c44" stroke="#466c44" points="655.225,-733.22 665.678,-729.906 658.951,-729.886 662.677,-726.552 662.677,-726.552 662.677,-726.552 658.951,-729.886 659.677,-723.198 655.225,-733.22 655.225,-733.22"/>
</g>
<!-- PointOfSale&#45;&gt;Product -->
<g id="edge18" class="edge"><title>PointOfSale&#45;&gt;Product</title>
<path fill="none" stroke="#8017ab" d="M598.199,-766.143C603.81,-756.477 608.639,-746.325 612,-736 630.709,-678.524 624.902,-659.051 612,-600 598.402,-537.763 566.428,-472.254 541.129,-426.958"/>
<ellipse fill="none" stroke="#8017ab" cx="596.059" cy="-769.671" rx="4.00002" ry="4.00002"/>
<polygon fill="#8017ab" stroke="#8017ab" points="541.086,-426.882 540.084,-415.962 538.626,-422.529 536.166,-418.176 536.166,-418.176 536.166,-418.176 538.626,-422.529 532.248,-420.39 541.086,-426.882 541.086,-426.882"/>
</g>
<!-- Shop -->
<g id="node11" class="node"><title>Shop</title>
<polyline fill="none" stroke="black" points="482.495,-601.2 591.505,-601.2 "/>
<path fill="none" stroke="black" d="M591.505,-601.2C597.505,-601.2 603.505,-607.2 603.505,-613.2"/>
<polyline fill="none" stroke="black" points="603.505,-613.2 603.505,-722.8 "/>
<path fill="none" stroke="black" d="M603.505,-722.8C603.505,-728.8 597.505,-734.8 591.505,-734.8"/>
<polyline fill="none" stroke="black" points="591.505,-734.8 482.495,-734.8 "/>
<path fill="none" stroke="black" d="M482.495,-734.8C476.495,-734.8 470.495,-728.8 470.495,-722.8"/>
<polyline fill="none" stroke="black" points="470.495,-722.8 470.495,-613.2 "/>
<path fill="none" stroke="black" d="M470.495,-613.2C470.495,-607.2 476.495,-601.2 482.495,-601.2"/>
<text text-anchor="middle" x="537" y="-716.8" font-family="Times,serif" font-size="14.00">Shop</text>
<polyline fill="none" stroke="black" points="470.495,-710 603.505,-710 "/>
<text text-anchor="start" x="478.495" y="-692" font-family="Times,serif" font-size="14.00">name :string</text>
<text text-anchor="start" x="478.495" y="-675.2" font-family="Times,serif" font-size="14.00">address :string</text>
<text text-anchor="start" x="478.495" y="-658.4" font-family="Times,serif" font-size="14.00">location :spatial</text>
<text text-anchor="start" x="478.495" y="-641.6" font-family="Times,serif" font-size="14.00">pos_type :integer</text>
<text text-anchor="start" x="478.495" y="-624.8" font-family="Times,serif" font-size="14.00">created_at :datetime</text>
<text text-anchor="start" x="478.495" y="-608" font-family="Times,serif" font-size="14.00">updated_at :datetime</text>
</g>
<!-- PointOfSale&#45;&gt;Shop -->
<g id="edge26" class="edge"><title>PointOfSale&#45;&gt;Shop</title>
<path fill="none" stroke="black" d="M537,-772.787C537,-760.387 537,-747.426 537,-735.033"/>
</g>
<!-- Product&#45;&gt;Delivery -->
<g id="edge22" class="edge"><title>Product&#45;&gt;Delivery</title>
<path fill="none" stroke="#9d7356" d="M505.681,-309.497C504.377,-259.025 499.941,-183.906 486,-120 484.106,-111.316 481.468,-102.284 478.563,-93.5913"/>
<ellipse fill="none" stroke="#9d7356" cx="505.778" cy="-313.692" rx="4" ry="4"/>
<polygon fill="#9d7356" stroke="#9d7356" points="478.495,-93.3971 479.442,-82.4722 476.844,-88.6773 475.194,-83.9575 475.194,-83.9575 475.194,-83.9575 476.844,-88.6773 470.946,-85.4428 478.495,-93.3971 478.495,-93.3971"/>
</g>
<!-- Product&#45;&gt;PointOfProduction -->
<g id="edge24" class="edge"><title>Product&#45;&gt;PointOfProduction</title>
<path fill="none" stroke="#1f409a" d="M475.063,-309.033C467.354,-294.59 458.98,-278.9 450.907,-263.773"/>
<polygon fill="#1f409a" stroke="#1f409a" points="475.081,-309.067 475.819,-320.008 477.435,-313.478 479.789,-317.89 479.789,-317.89 479.789,-317.89 477.435,-313.478 483.759,-315.771 475.081,-309.067 475.081,-309.067"/>
<polygon fill="#1f409a" stroke="#1f409a" points="450.904,-263.768 450.166,-252.827 448.55,-259.357 446.196,-254.946 446.196,-254.946 446.196,-254.946 448.55,-259.357 442.226,-257.065 450.904,-263.768 450.904,-263.768"/>
</g>
</g>
</svg>
