<?xml version="1.0" encoding="UTF-8" standalone="no"?>
<!DOCTYPE svg PUBLIC "-//W3C//DTD SVG 1.1//EN"
 "http://www.w3.org/Graphics/SVG/1.1/DTD/svg11.dtd">
<!-- Generated by graphviz version 2.28.0 (20120607.1901)
 -->
<!-- Title: models_diagram Pages: 1 -->
<svg width="673pt" height="526pt"
 viewBox="0.00 0.00 673.00 526.00" xmlns="http://www.w3.org/2000/svg" xmlns:xlink="http://www.w3.org/1999/xlink">
<g id="graph1" class="graph" transform="scale(1 1) rotate(0) translate(4 522)">
<title>models_diagram</title>
<polygon fill="white" stroke="white" points="-4,5 -4,-522 670,-522 670,5 -4,5"/>
<!-- _diagram_info -->
<g id="node1" class="node"><title>_diagram_info</title>
<text text-anchor="start" x="7.31226" y="-501" font-family="Times,serif" font-size="13.00">Models diagram</text>
<text text-anchor="start" x="7.31226" y="-485.4" font-family="Times,serif" font-size="13.00">Date: Aug 30 2013 &#45; 16:22</text>
<text text-anchor="start" x="7.31226" y="-469.8" font-family="Times,serif" font-size="13.00">Migration version: 20130702174126</text>
<text text-anchor="start" x="7.31226" y="-454.2" font-family="Times,serif" font-size="13.00">Generated by RailRoady 1.0.7</text>
<text text-anchor="start" x="7.31226" y="-438.6" font-family="Times,serif" font-size="13.00">http://railroady.prestonlee.com</text>
</g>
<!-- Delivery -->
<g id="node2" class="node"><title>Delivery</title>
<ellipse fill="none" stroke="black" cx="390" cy="-18" rx="44.2348" ry="18"/>
<text text-anchor="middle" x="390" y="-12.4" font-family="Times,serif" font-size="14.00">Delivery</text>
</g>
<!-- DetailInfo -->
<g id="node3" class="node"><title>DetailInfo</title>
<ellipse fill="none" stroke="black" cx="336" cy="-162" rx="50.5802" ry="18"/>
<text text-anchor="middle" x="336" y="-156.4" font-family="Times,serif" font-size="14.00">DetailInfo</text>
</g>
<!-- Market -->
<g id="node4" class="node"><title>Market</title>
<ellipse fill="none" stroke="black" cx="362" cy="-306" rx="38.3853" ry="18"/>
<text text-anchor="middle" x="362" y="-300.4" font-family="Times,serif" font-size="14.00">Market</text>
</g>
<!-- MarketStall -->
<g id="node5" class="node"><title>MarketStall</title>
<ellipse fill="none" stroke="black" cx="380" cy="-234" rx="56.4428" ry="18"/>
<text text-anchor="middle" x="380" y="-228.4" font-family="Times,serif" font-size="14.00">MarketStall</text>
</g>
<!-- Market&#45;&gt;MarketStall -->
<g id="edge2" class="edge"><title>Market&#45;&gt;MarketStall</title>
<path fill="none" stroke="#5f445f" d="M368.36,-280.267C369.847,-274.485 371.439,-268.291 372.954,-262.4"/>
<ellipse fill="none" stroke="#5f445f" cx="367.353" cy="-284.181" rx="4.00001" ry="4.00001"/>
<polygon fill="#5f445f" stroke="#5f445f" points="373.067,-261.96 379.916,-253.396 374.313,-257.118 375.558,-252.275 375.558,-252.275 375.558,-252.275 374.313,-257.118 371.2,-251.155 373.067,-261.96 373.067,-261.96"/>
</g>
<!-- MarketStall&#45;&gt;DetailInfo -->
<g id="edge8" class="edge"><title>MarketStall&#45;&gt;DetailInfo</title>
<path fill="none" stroke="#61f34e" d="M365.09,-209.28C360.525,-202.016 355.503,-194.027 350.935,-186.761"/>
<ellipse fill="none" stroke="#61f34e" cx="367.22" cy="-212.668" rx="4.00002" ry="4.00002"/>
<ellipse fill="#61f34e" stroke="#61f34e" cx="348.682" cy="-183.176" rx="4.00002" ry="4.00002"/>
</g>
<!-- Product -->
<g id="node10" class="node"><title>Product</title>
<ellipse fill="none" stroke="black" cx="446" cy="-162" rx="41.1166" ry="18"/>
<text text-anchor="middle" x="446" y="-156.4" font-family="Times,serif" font-size="14.00">Product</text>
</g>
<!-- MarketStall&#45;&gt;Product -->
<g id="edge6" class="edge"><title>MarketStall&#45;&gt;Product</title>
<path fill="none" stroke="#ed29bb" d="M401.137,-210.582C408.41,-202.869 416.568,-194.216 423.914,-186.425"/>
<ellipse fill="none" stroke="#ed29bb" cx="398.385" cy="-213.501" rx="4.00002" ry="4.00002"/>
<polygon fill="#ed29bb" stroke="#ed29bb" points="424.065,-186.264 434.2,-182.075 427.495,-182.626 430.925,-178.988 430.925,-178.988 430.925,-178.988 427.495,-182.626 427.651,-175.901 424.065,-186.264 424.065,-186.264"/>
</g>
<!-- OpeningTime -->
<g id="node6" class="node"><title>OpeningTime</title>
<ellipse fill="none" stroke="black" cx="601" cy="-306" rx="64.0083" ry="18"/>
<text text-anchor="middle" x="601" y="-300.4" font-family="Times,serif" font-size="14.00">OpeningTime</text>
</g>
<!-- PointOfInterest -->
<g id="node7" class="node"><title>PointOfInterest</title>
<ellipse fill="none" stroke="black" cx="295" cy="-475" rx="70.3648" ry="18"/>
<text text-anchor="middle" x="295" y="-469.4" font-family="Times,serif" font-size="14.00">PointOfInterest</text>
</g>
<!-- PointOfInterest&#45;&gt;DetailInfo -->
<g id="edge10" class="edge"><title>PointOfInterest&#45;&gt;DetailInfo</title>
<path fill="none" stroke="#252f18" d="M294.216,-448.766C293.344,-402.111 294.142,-299.502 314,-216 316.282,-206.405 320.089,-196.304 323.901,-187.525"/>
<ellipse fill="none" stroke="#252f18" cx="294.305" cy="-452.81" rx="4" ry="4"/>
<ellipse fill="#252f18" stroke="#252f18" cx="325.566" cy="-183.84" rx="4.00002" ry="4.00002"/>
</g>
<!-- PointOfProduction -->
<g id="node8" class="node"><title>PointOfProduction</title>
<ellipse fill="none" stroke="black" cx="334" cy="-90" rx="84.0017" ry="18"/>
<text text-anchor="middle" x="334" y="-84.4" font-family="Times,serif" font-size="14.00">PointOfProduction</text>
</g>
<!-- PointOfInterest&#45;&gt;PointOfProduction -->
<g id="edge14" class="edge"><title>PointOfInterest&#45;&gt;PointOfProduction</title>
<path fill="none" stroke="black" d="M288.381,-456.743C277.494,-426.761 257,-362.9 257,-307 257,-307 257,-307 257,-233 257,-192.553 255.89,-179.093 276,-144 284.342,-129.443 298.057,-116.639 310.056,-107.265"/>
</g>
<!-- PointOfSale -->
<g id="node9" class="node"><title>PointOfSale</title>
<ellipse fill="none" stroke="black" cx="450" cy="-378" rx="58.3697" ry="18"/>
<text text-anchor="middle" x="450" y="-372.4" font-family="Times,serif" font-size="14.00">PointOfSale</text>
</g>
<!-- PointOfInterest&#45;&gt;PointOfSale -->
<g id="edge20" class="edge"><title>PointOfInterest&#45;&gt;PointOfSale</title>
<path fill="none" stroke="black" d="M320.944,-458.099C349.9,-440.351 396.431,-411.832 425,-394.323"/>
</g>
<!-- PointOfProduction&#45;&gt;Delivery -->
<g id="edge12" class="edge"><title>PointOfProduction&#45;&gt;Delivery</title>
<path fill="none" stroke="#064f10" d="M352.602,-65.7478C358.337,-58.5789 364.667,-50.6662 370.463,-43.421"/>
<ellipse fill="none" stroke="#064f10" cx="350.055" cy="-68.9315" rx="4.00002" ry="4.00002"/>
<polygon fill="#064f10" stroke="#064f10" points="370.707,-43.1157 380.468,-38.1181 373.831,-39.2114 376.954,-35.307 376.954,-35.307 376.954,-35.307 373.831,-39.2114 373.44,-32.4959 370.707,-43.1157 370.707,-43.1157"/>
</g>
<!-- PointOfSale&#45;&gt;Market -->
<g id="edge4" class="edge"><title>PointOfSale&#45;&gt;Market</title>
<path fill="none" stroke="black" d="M429.59,-360.765C414.865,-349.052 395.137,-333.359 380.797,-321.952"/>
</g>
<!-- PointOfSale&#45;&gt;OpeningTime -->
<g id="edge16" class="edge"><title>PointOfSale&#45;&gt;OpeningTime</title>
<path fill="none" stroke="#c386be" d="M488.445,-359.178C510.362,-349.018 537.818,-336.29 560.126,-325.948"/>
<ellipse fill="none" stroke="#c386be" cx="484.551" cy="-360.983" rx="4.00002" ry="4.00002"/>
<polygon fill="#c386be" stroke="#c386be" points="560.268,-325.882 571.233,-325.759 564.804,-323.78 569.34,-321.677 569.34,-321.677 569.34,-321.677 564.804,-323.78 567.448,-317.594 560.268,-325.882 560.268,-325.882"/>
</g>
<!-- PointOfSale&#45;&gt;Product -->
<g id="edge18" class="edge"><title>PointOfSale&#45;&gt;Product</title>
<path fill="none" stroke="#1c2e05" d="M471.743,-354.141C478.652,-345.401 485.422,-334.898 489,-324 504.522,-276.715 479.769,-220.282 461.858,-188.345"/>
<ellipse fill="none" stroke="#1c2e05" cx="469.043" cy="-357.385" rx="4.00002" ry="4.00002"/>
<polygon fill="#1c2e05" stroke="#1c2e05" points="461.822,-188.283 460.69,-177.376 459.31,-183.959 456.799,-179.636 456.799,-179.636 456.799,-179.636 459.31,-183.959 452.908,-181.896 461.822,-188.283 461.822,-188.283"/>
</g>
<!-- Shop -->
<g id="node11" class="node"><title>Shop</title>
<ellipse fill="none" stroke="black" cx="450" cy="-306" rx="30.3409" ry="18"/>
<text text-anchor="middle" x="450" y="-300.4" font-family="Times,serif" font-size="14.00">Shop</text>
</g>
<!-- PointOfSale&#45;&gt;Shop -->
<g id="edge26" class="edge"><title>PointOfSale&#45;&gt;Shop</title>
<path fill="none" stroke="black" d="M450,-359.697C450,-348.846 450,-334.917 450,-324.104"/>
</g>
<!-- Product&#45;&gt;Delivery -->
<g id="edge22" class="edge"><title>Product&#45;&gt;Delivery</title>
<path fill="none" stroke="#18429b" d="M443.313,-135.601C440.736,-117.334 435.874,-92.423 427,-72 422.64,-61.9651 416.234,-51.8861 409.973,-43.2522"/>
<ellipse fill="none" stroke="#18429b" cx="443.887" cy="-140.02" rx="4.00001" ry="4.00001"/>
<polygon fill="#18429b" stroke="#18429b" points="409.878,-43.1274 407.429,-32.4386 406.86,-39.1413 403.841,-35.1552 403.841,-35.1552 403.841,-35.1552 406.86,-39.1413 400.254,-37.8718 409.878,-43.1274 409.878,-43.1274"/>
</g>
<!-- Product&#45;&gt;PointOfProduction -->
<g id="edge24" class="edge"><title>Product&#45;&gt;PointOfProduction</title>
<path fill="none" stroke="#cc10d2" d="M414.748,-141.467C400.514,-132.571 383.61,-122.006 368.956,-112.847"/>
<polygon fill="#cc10d2" stroke="#cc10d2" points="414.855,-141.534 420.95,-150.65 419.095,-144.184 423.335,-146.834 423.335,-146.834 423.335,-146.834 419.095,-144.184 425.72,-143.018 414.855,-141.534 414.855,-141.534"/>
<polygon fill="#cc10d2" stroke="#cc10d2" points="368.646,-112.654 362.551,-103.538 364.406,-110.004 360.166,-107.354 360.166,-107.354 360.166,-107.354 364.406,-110.004 357.781,-111.17 368.646,-112.654 368.646,-112.654"/>
</g>
</g>
</svg>
